<svg xmlns="http://www.w3.org/2000/svg" xmlns:xlink="http://www.w3.org/1999/xlink" width="500" zoomAndPan="magnify" viewBox="0 0 375 374.999991" height="500" preserveAspectRatio="xMidYMid meet" version="1.0"><defs><g/><clipPath id="125991635e"><path d="M 132.640625 88 L 242.140625 88 L 242.140625 228.882812 L 132.640625 228.882812 Z M 132.640625 88 " clip-rule="nonzero"/></clipPath></defs><rect x="-37.5" width="450" fill="#ffffff" y="-37.499999" height="449.999989" fill-opacity="1"/><rect x="-37.5" width="450" fill="#ffffff" y="-37.499999" height="449.999989" fill-opacity="1"/><rect x="-37.5" width="450" fill="#ffffff" y="-37.499999" height="449.999989" fill-opacity="1"/><g fill="#474349" fill-opacity="1"><g transform="translate(83.145255, 266.831687)"><g><path d="M 2.15625 0 L 2.15625 -19.890625 L 7.515625 -19.890625 L 7.515625 -4.34375 L 15.1875 -4.34375 L 15.1875 0 Z M 2.15625 0 "/></g></g></g><g fill="#474349" fill-opacity="1"><g transform="translate(106.70653, 266.831687)"><g><path d="M 20.765625 -9.96875 C 20.765625 -6.625 19.941406 -4.082031 18.296875 -2.34375 C 16.648438 -0.601562 14.25 0.265625 11.09375 0.265625 C 7.96875 0.265625 5.570312 -0.609375 3.90625 -2.359375 C 2.25 -4.109375 1.421875 -6.65625 1.421875 -10 C 1.421875 -13.3125 2.242188 -15.835938 3.890625 -17.578125 C 5.546875 -19.328125 7.953125 -20.203125 11.109375 -20.203125 C 14.273438 -20.203125 16.675781 -19.332031 18.3125 -17.59375 C 19.945312 -15.863281 20.765625 -13.320312 20.765625 -9.96875 Z M 7.078125 -9.96875 C 7.078125 -6.125 8.414062 -4.203125 11.09375 -4.203125 C 12.445312 -4.203125 13.453125 -4.664062 14.109375 -5.59375 C 14.765625 -6.53125 15.09375 -7.988281 15.09375 -9.96875 C 15.09375 -11.957031 14.757812 -13.425781 14.09375 -14.375 C 13.425781 -15.320312 12.429688 -15.796875 11.109375 -15.796875 C 8.421875 -15.796875 7.078125 -13.851562 7.078125 -9.96875 Z M 7.078125 -9.96875 "/></g></g></g><g fill="#474349" fill-opacity="1"><g transform="translate(136.24986, 266.831687)"><g><path d="M 11 -15.765625 C 9.726562 -15.765625 8.734375 -15.238281 8.015625 -14.1875 C 7.296875 -13.144531 6.9375 -11.703125 6.9375 -9.859375 C 6.9375 -6.035156 8.390625 -4.125 11.296875 -4.125 C 12.179688 -4.125 13.035156 -4.242188 13.859375 -4.484375 C 14.679688 -4.734375 15.507812 -5.03125 16.34375 -5.375 L 16.34375 -0.828125 C 14.6875 -0.0976562 12.8125 0.265625 10.71875 0.265625 C 7.71875 0.265625 5.414062 -0.601562 3.8125 -2.34375 C 2.21875 -4.082031 1.421875 -6.597656 1.421875 -9.890625 C 1.421875 -11.953125 1.804688 -13.757812 2.578125 -15.3125 C 3.347656 -16.875 4.460938 -18.070312 5.921875 -18.90625 C 7.378906 -19.75 9.09375 -20.171875 11.0625 -20.171875 C 13.207031 -20.171875 15.257812 -19.703125 17.21875 -18.765625 L 15.578125 -14.546875 C 14.835938 -14.890625 14.097656 -15.175781 13.359375 -15.40625 C 12.628906 -15.644531 11.84375 -15.765625 11 -15.765625 Z M 11 -15.765625 "/></g></g></g><g fill="#474349" fill-opacity="1"><g transform="translate(161.673726, 266.831687)"><g><path d="M 20.765625 -9.96875 C 20.765625 -6.625 19.941406 -4.082031 18.296875 -2.34375 C 16.648438 -0.601562 14.25 0.265625 11.09375 0.265625 C 7.96875 0.265625 5.570312 -0.609375 3.90625 -2.359375 C 2.25 -4.109375 1.421875 -6.65625 1.421875 -10 C 1.421875 -13.3125 2.242188 -15.835938 3.890625 -17.578125 C 5.546875 -19.328125 7.953125 -20.203125 11.109375 -20.203125 C 14.273438 -20.203125 16.675781 -19.332031 18.3125 -17.59375 C 19.945312 -15.863281 20.765625 -13.320312 20.765625 -9.96875 Z M 7.078125 -9.96875 C 7.078125 -6.125 8.414062 -4.203125 11.09375 -4.203125 C 12.445312 -4.203125 13.453125 -4.664062 14.109375 -5.59375 C 14.765625 -6.53125 15.09375 -7.988281 15.09375 -9.96875 C 15.09375 -11.957031 14.757812 -13.425781 14.09375 -14.375 C 13.425781 -15.320312 12.429688 -15.796875 11.109375 -15.796875 C 8.421875 -15.796875 7.078125 -13.851562 7.078125 -9.96875 Z M 7.078125 -9.96875 "/></g></g></g><g fill="#474349" fill-opacity="1"><g transform="translate(191.217059, 266.831687)"><g><path d="M 10.921875 0 L 5.546875 0 L 5.546875 -15.5 L 0.6875 -15.5 L 0.6875 -19.890625 L 15.765625 -19.890625 L 15.765625 -15.5 L 10.921875 -15.5 Z M 10.921875 0 "/></g></g></g><g fill="#474349" fill-opacity="1"><g transform="translate(215.023057, 266.831687)"><g><path d="M 20.765625 -9.96875 C 20.765625 -6.625 19.941406 -4.082031 18.296875 -2.34375 C 16.648438 -0.601562 14.25 0.265625 11.09375 0.265625 C 7.96875 0.265625 5.570312 -0.609375 3.90625 -2.359375 C 2.25 -4.109375 1.421875 -6.65625 1.421875 -10 C 1.421875 -13.3125 2.242188 -15.835938 3.890625 -17.578125 C 5.546875 -19.328125 7.953125 -20.203125 11.109375 -20.203125 C 14.273438 -20.203125 16.675781 -19.332031 18.3125 -17.59375 C 19.945312 -15.863281 20.765625 -13.320312 20.765625 -9.96875 Z M 7.078125 -9.96875 C 7.078125 -6.125 8.414062 -4.203125 11.09375 -4.203125 C 12.445312 -4.203125 13.453125 -4.664062 14.109375 -5.59375 C 14.765625 -6.53125 15.09375 -7.988281 15.09375 -9.96875 C 15.09375 -11.957031 14.757812 -13.425781 14.09375 -14.375 C 13.425781 -15.320312 12.429688 -15.796875 11.109375 -15.796875 C 8.421875 -15.796875 7.078125 -13.851562 7.078125 -9.96875 Z M 7.078125 -9.96875 "/></g></g></g><g fill="#474349" fill-opacity="1"><g transform="translate(244.56639, 266.831687)"><g><path d="M 19.0625 -19.890625 L 19.0625 -7.921875 C 19.0625 -5.316406 18.320312 -3.300781 16.84375 -1.875 C 15.375 -0.445312 13.25 0.265625 10.46875 0.265625 C 7.757812 0.265625 5.675781 -0.425781 4.21875 -1.8125 C 2.769531 -3.195312 2.046875 -5.191406 2.046875 -7.796875 L 2.046875 -19.890625 L 7.4375 -19.890625 L 7.4375 -8.21875 C 7.4375 -6.8125 7.695312 -5.789062 8.21875 -5.15625 C 8.75 -4.519531 9.53125 -4.203125 10.5625 -4.203125 C 11.65625 -4.203125 12.445312 -4.515625 12.9375 -5.140625 C 13.4375 -5.773438 13.6875 -6.8125 13.6875 -8.25 L 13.6875 -19.890625 Z M 19.0625 -19.890625 "/></g></g></g><g fill="#474349" fill-opacity="1"><g transform="translate(272.994886, 266.831687)"><g><path d="M 7.515625 -7.234375 L 7.515625 0 L 2.15625 0 L 2.15625 -19.890625 L 8.671875 -19.890625 C 14.066406 -19.890625 16.765625 -17.929688 16.765625 -14.015625 C 16.765625 -11.710938 15.644531 -9.929688 13.40625 -8.671875 L 19.1875 0 L 13.09375 0 L 8.890625 -7.234375 Z M 7.515625 -11.28125 L 8.53125 -11.28125 C 10.40625 -11.28125 11.34375 -12.109375 11.34375 -13.765625 C 11.34375 -15.140625 10.421875 -15.828125 8.578125 -15.828125 L 7.515625 -15.828125 Z M 7.515625 -11.28125 "/></g></g></g><g fill="#474349" fill-opacity="1"><g transform="translate(122.227497, 284.59753)"><g><path d="M 0.9375 0 L 0.9375 -8.625 L 3.265625 -8.625 L 3.265625 -1.875 L 6.578125 -1.875 L 6.578125 0 Z M 0.9375 0 "/></g></g></g><g fill="#474349" fill-opacity="1"><g transform="translate(131.511494, 284.59753)"><g><path d="M 0.9375 0 L 0.9375 -8.625 L 3.265625 -8.625 L 3.265625 0 Z M 0.9375 0 "/></g></g></g><g fill="#474349" fill-opacity="1"><g transform="translate(137.972405, 284.59753)"><g><path d="M 5.78125 -8.625 L 8.375 -8.625 L 5.5625 0 L 2.8125 0 L 0 -8.625 L 2.625 -8.625 L 3.796875 -4.25 C 4.035156 -3.28125 4.164062 -2.601562 4.1875 -2.21875 C 4.21875 -2.5 4.273438 -2.84375 4.359375 -3.25 C 4.441406 -3.664062 4.515625 -3.992188 4.578125 -4.234375 Z M 5.78125 -8.625 "/></g></g></g><g fill="#474349" fill-opacity="1"><g transform="translate(148.606061, 284.59753)"><g><path d="M 6.046875 0 L 0.9375 0 L 0.9375 -8.625 L 6.046875 -8.625 L 6.046875 -6.75 L 3.265625 -6.75 L 3.265625 -5.390625 L 5.84375 -5.390625 L 5.84375 -3.53125 L 3.265625 -3.53125 L 3.265625 -1.90625 L 6.046875 -1.90625 Z M 6.046875 0 "/></g></g></g><g fill="#474349" fill-opacity="1"><g transform="translate(157.489285, 284.59753)"><g/></g></g><g fill="#474349" fill-opacity="1"><g transform="translate(162.883435, 284.59753)"><g><path d="M 0.9375 0 L 0.9375 -8.625 L 3.265625 -8.625 L 3.265625 -1.875 L 6.578125 -1.875 L 6.578125 0 Z M 0.9375 0 "/></g></g></g><g fill="#474349" fill-opacity="1"><g transform="translate(172.167434, 284.59753)"><g><path d="M 0.9375 0 L 0.9375 -8.625 L 3.265625 -8.625 L 3.265625 0 Z M 0.9375 0 "/></g></g></g><g fill="#474349" fill-opacity="1"><g transform="translate(178.628344, 284.59753)"><g><path d="M 8.296875 0 L 5.671875 0 L 3.96875 -3.296875 L 3.265625 -2.890625 L 3.265625 0 L 0.9375 0 L 0.9375 -8.625 L 3.265625 -8.625 L 3.265625 -4.875 C 3.390625 -5.101562 3.628906 -5.472656 3.984375 -5.984375 L 5.796875 -8.625 L 8.34375 -8.625 L 5.625 -4.765625 Z M 8.296875 0 "/></g></g></g><g fill="#474349" fill-opacity="1"><g transform="translate(189.179487, 284.59753)"><g><path d="M 6.046875 0 L 0.9375 0 L 0.9375 -8.625 L 6.046875 -8.625 L 6.046875 -6.75 L 3.265625 -6.75 L 3.265625 -5.390625 L 5.84375 -5.390625 L 5.84375 -3.53125 L 3.265625 -3.53125 L 3.265625 -1.90625 L 6.046875 -1.90625 Z M 6.046875 0 "/></g></g></g><g fill="#474349" fill-opacity="1"><g transform="translate(198.062711, 284.59753)"><g/></g></g><g fill="#474349" fill-opacity="1"><g transform="translate(203.45686, 284.59753)"><g><path d="M 0.9375 0 L 0.9375 -8.625 L 3.265625 -8.625 L 3.265625 -1.875 L 6.578125 -1.875 L 6.578125 0 Z M 0.9375 0 "/></g></g></g><g fill="#474349" fill-opacity="1"><g transform="translate(212.740856, 284.59753)"><g><path d="M 9 -4.328125 C 9 -2.867188 8.640625 -1.757812 7.921875 -1 C 7.210938 -0.25 6.175781 0.125 4.8125 0.125 C 3.457031 0.125 2.414062 -0.253906 1.6875 -1.015625 C 0.96875 -1.773438 0.609375 -2.878906 0.609375 -4.328125 C 0.609375 -5.765625 0.96875 -6.863281 1.6875 -7.625 C 2.40625 -8.382812 3.445312 -8.765625 4.8125 -8.765625 C 6.1875 -8.765625 7.226562 -8.382812 7.9375 -7.625 C 8.644531 -6.875 9 -5.773438 9 -4.328125 Z M 3.0625 -4.328125 C 3.0625 -2.660156 3.644531 -1.828125 4.8125 -1.828125 C 5.394531 -1.828125 5.828125 -2.023438 6.109375 -2.421875 C 6.398438 -2.828125 6.546875 -3.460938 6.546875 -4.328125 C 6.546875 -5.179688 6.398438 -5.8125 6.109375 -6.21875 C 5.816406 -6.632812 5.382812 -6.84375 4.8125 -6.84375 C 3.644531 -6.84375 3.0625 -6.003906 3.0625 -4.328125 Z M 3.0625 -4.328125 "/></g></g></g><g fill="#474349" fill-opacity="1"><g transform="translate(224.618089, 284.59753)"><g><path d="M 4.765625 -6.828125 C 4.210938 -6.828125 3.78125 -6.597656 3.46875 -6.140625 C 3.15625 -5.691406 3 -5.070312 3 -4.28125 C 3 -2.613281 3.632812 -1.78125 4.90625 -1.78125 C 5.28125 -1.78125 5.644531 -1.832031 6 -1.9375 C 6.363281 -2.050781 6.726562 -2.179688 7.09375 -2.328125 L 7.09375 -0.359375 C 6.375 -0.0351562 5.554688 0.125 4.640625 0.125 C 3.335938 0.125 2.335938 -0.25 1.640625 -1 C 0.953125 -1.757812 0.609375 -2.851562 0.609375 -4.28125 C 0.609375 -5.175781 0.773438 -5.960938 1.109375 -6.640625 C 1.453125 -7.316406 1.9375 -7.835938 2.5625 -8.203125 C 3.195312 -8.566406 3.941406 -8.75 4.796875 -8.75 C 5.722656 -8.75 6.613281 -8.546875 7.46875 -8.140625 L 6.75 -6.296875 C 6.4375 -6.453125 6.117188 -6.578125 5.796875 -6.671875 C 5.472656 -6.773438 5.128906 -6.828125 4.765625 -6.828125 Z M 4.765625 -6.828125 "/></g></g></g><g fill="#474349" fill-opacity="1"><g transform="translate(234.709523, 284.59753)"><g><path d="M 6.21875 0 L 5.796875 -1.609375 L 3 -1.609375 L 2.5625 0 L 0 0 L 2.8125 -8.65625 L 5.921875 -8.65625 L 8.765625 0 Z M 5.3125 -3.53125 L 4.9375 -4.9375 C 4.851562 -5.25 4.75 -5.65625 4.625 -6.15625 C 4.5 -6.65625 4.414062 -7.015625 4.375 -7.234375 C 4.34375 -7.035156 4.273438 -6.707031 4.171875 -6.25 C 4.066406 -5.789062 3.835938 -4.882812 3.484375 -3.53125 Z M 5.3125 -3.53125 "/></g></g></g><g fill="#474349" fill-opacity="1"><g transform="translate(245.732162, 284.59753)"><g><path d="M 0.9375 0 L 0.9375 -8.625 L 3.265625 -8.625 L 3.265625 -1.875 L 6.578125 -1.875 L 6.578125 0 Z M 0.9375 0 "/></g></g></g><g fill="#474349" fill-opacity="1"><g transform="translate(111.223592, 298.097529)"><g><path d="M 0.9375 0 L 0.9375 -8.625 L 3.265625 -8.625 L 3.265625 -1.875 L 6.578125 -1.875 L 6.578125 0 Z M 0.9375 0 "/></g></g></g><g fill="#474349" fill-opacity="1"><g transform="translate(120.507589, 298.097529)"><g><path d="M 9 -4.328125 C 9 -2.867188 8.640625 -1.757812 7.921875 -1 C 7.210938 -0.25 6.175781 0.125 4.8125 0.125 C 3.457031 0.125 2.414062 -0.253906 1.6875 -1.015625 C 0.96875 -1.773438 0.609375 -2.878906 0.609375 -4.328125 C 0.609375 -5.765625 0.96875 -6.863281 1.6875 -7.625 C 2.40625 -8.382812 3.445312 -8.765625 4.8125 -8.765625 C 6.1875 -8.765625 7.226562 -8.382812 7.9375 -7.625 C 8.644531 -6.875 9 -5.773438 9 -4.328125 Z M 3.0625 -4.328125 C 3.0625 -2.660156 3.644531 -1.828125 4.8125 -1.828125 C 5.394531 -1.828125 5.828125 -2.023438 6.109375 -2.421875 C 6.398438 -2.828125 6.546875 -3.460938 6.546875 -4.328125 C 6.546875 -5.179688 6.398438 -5.8125 6.109375 -6.21875 C 5.816406 -6.632812 5.382812 -6.84375 4.8125 -6.84375 C 3.644531 -6.84375 3.0625 -6.003906 3.0625 -4.328125 Z M 3.0625 -4.328125 "/></g></g></g><g fill="#474349" fill-opacity="1"><g transform="translate(132.384816, 298.097529)"><g><path d="M 5.78125 -8.625 L 8.375 -8.625 L 5.5625 0 L 2.8125 0 L 0 -8.625 L 2.625 -8.625 L 3.796875 -4.25 C 4.035156 -3.28125 4.164062 -2.601562 4.1875 -2.21875 C 4.21875 -2.5 4.273438 -2.84375 4.359375 -3.25 C 4.441406 -3.664062 4.515625 -3.992188 4.578125 -4.234375 Z M 5.78125 -8.625 "/></g></g></g><g fill="#474349" fill-opacity="1"><g transform="translate(143.018473, 298.097529)"><g><path d="M 6.046875 0 L 0.9375 0 L 0.9375 -8.625 L 6.046875 -8.625 L 6.046875 -6.75 L 3.265625 -6.75 L 3.265625 -5.390625 L 5.84375 -5.390625 L 5.84375 -3.53125 L 3.265625 -3.53125 L 3.265625 -1.90625 L 6.046875 -1.90625 Z M 6.046875 0 "/></g></g></g><g fill="#474349" fill-opacity="1"><g transform="translate(151.901696, 298.097529)"><g/></g></g><g fill="#474349" fill-opacity="1"><g transform="translate(157.295846, 298.097529)"><g><path d="M 0.9375 0 L 0.9375 -8.625 L 3.265625 -8.625 L 3.265625 -1.875 L 6.578125 -1.875 L 6.578125 0 Z M 0.9375 0 "/></g></g></g><g fill="#474349" fill-opacity="1"><g transform="translate(166.579845, 298.097529)"><g><path d="M 0.9375 0 L 0.9375 -8.625 L 3.265625 -8.625 L 3.265625 0 Z M 0.9375 0 "/></g></g></g><g fill="#474349" fill-opacity="1"><g transform="translate(173.040755, 298.097529)"><g><path d="M 8.296875 0 L 5.671875 0 L 3.96875 -3.296875 L 3.265625 -2.890625 L 3.265625 0 L 0.9375 0 L 0.9375 -8.625 L 3.265625 -8.625 L 3.265625 -4.875 C 3.390625 -5.101562 3.628906 -5.472656 3.984375 -5.984375 L 5.796875 -8.625 L 8.34375 -8.625 L 5.625 -4.765625 Z M 8.296875 0 "/></g></g></g><g fill="#474349" fill-opacity="1"><g transform="translate(183.591898, 298.097529)"><g><path d="M 6.046875 0 L 0.9375 0 L 0.9375 -8.625 L 6.046875 -8.625 L 6.046875 -6.75 L 3.265625 -6.75 L 3.265625 -5.390625 L 5.84375 -5.390625 L 5.84375 -3.53125 L 3.265625 -3.53125 L 3.265625 -1.90625 L 6.046875 -1.90625 Z M 6.046875 0 "/></g></g></g><g fill="#474349" fill-opacity="1"><g transform="translate(192.475122, 298.097529)"><g/></g></g><g fill="#474349" fill-opacity="1"><g transform="translate(197.869271, 298.097529)"><g><path d="M 4.734375 0 L 2.40625 0 L 2.40625 -6.71875 L 0.296875 -6.71875 L 0.296875 -8.625 L 6.828125 -8.625 L 6.828125 -6.71875 L 4.734375 -6.71875 Z M 4.734375 0 "/></g></g></g><g fill="#474349" fill-opacity="1"><g transform="translate(207.25936, 298.097529)"><g><path d="M 9 -4.328125 C 9 -2.867188 8.640625 -1.757812 7.921875 -1 C 7.210938 -0.25 6.175781 0.125 4.8125 0.125 C 3.457031 0.125 2.414062 -0.253906 1.6875 -1.015625 C 0.96875 -1.773438 0.609375 -2.878906 0.609375 -4.328125 C 0.609375 -5.765625 0.96875 -6.863281 1.6875 -7.625 C 2.40625 -8.382812 3.445312 -8.765625 4.8125 -8.765625 C 6.1875 -8.765625 7.226562 -8.382812 7.9375 -7.625 C 8.644531 -6.875 9 -5.773438 9 -4.328125 Z M 3.0625 -4.328125 C 3.0625 -2.660156 3.644531 -1.828125 4.8125 -1.828125 C 5.394531 -1.828125 5.828125 -2.023438 6.109375 -2.421875 C 6.398438 -2.828125 6.546875 -3.460938 6.546875 -4.328125 C 6.546875 -5.179688 6.398438 -5.8125 6.109375 -6.21875 C 5.816406 -6.632812 5.382812 -6.84375 4.8125 -6.84375 C 3.644531 -6.84375 3.0625 -6.003906 3.0625 -4.328125 Z M 3.0625 -4.328125 "/></g></g></g><g fill="#474349" fill-opacity="1"><g transform="translate(219.136587, 298.097529)"><g><path d="M 8.265625 -8.625 L 8.265625 -3.4375 C 8.265625 -2.300781 7.941406 -1.421875 7.296875 -0.796875 C 6.660156 -0.179688 5.742188 0.125 4.546875 0.125 C 3.367188 0.125 2.460938 -0.175781 1.828125 -0.78125 C 1.203125 -1.382812 0.890625 -2.25 0.890625 -3.375 L 0.890625 -8.625 L 3.21875 -8.625 L 3.21875 -3.5625 C 3.21875 -2.945312 3.332031 -2.503906 3.5625 -2.234375 C 3.789062 -1.960938 4.128906 -1.828125 4.578125 -1.828125 C 5.054688 -1.828125 5.398438 -1.960938 5.609375 -2.234375 C 5.828125 -2.503906 5.9375 -2.953125 5.9375 -3.578125 L 5.9375 -8.625 Z M 8.265625 -8.625 "/></g></g></g><g fill="#474349" fill-opacity="1"><g transform="translate(230.53053, 298.097529)"><g><path d="M 3.265625 -3.140625 L 3.265625 0 L 0.9375 0 L 0.9375 -8.625 L 3.75 -8.625 C 6.09375 -8.625 7.265625 -7.773438 7.265625 -6.078125 C 7.265625 -5.078125 6.78125 -4.300781 5.8125 -3.75 L 8.328125 0 L 5.671875 0 L 3.84375 -3.140625 Z M 3.265625 -4.890625 L 3.703125 -4.890625 C 4.515625 -4.890625 4.921875 -5.25 4.921875 -5.96875 C 4.921875 -6.5625 4.519531 -6.859375 3.71875 -6.859375 L 3.265625 -6.859375 Z M 3.265625 -4.890625 "/></g></g></g><g fill="#474349" fill-opacity="1"><g transform="translate(240.957905, 298.097529)"><g><path d="M 0.9375 0 L 0.9375 -8.625 L 3.265625 -8.625 L 3.265625 0 Z M 0.9375 0 "/></g></g></g><g fill="#474349" fill-opacity="1"><g transform="translate(247.418815, 298.097529)"><g><path d="M 6.5625 -2.625 C 6.5625 -2.082031 6.425781 -1.601562 6.15625 -1.1875 C 5.882812 -0.78125 5.492188 -0.457031 4.984375 -0.21875 C 4.472656 0.0078125 3.875 0.125 3.1875 0.125 C 2.613281 0.125 2.128906 0.0820312 1.734375 0 C 1.347656 -0.0820312 0.945312 -0.222656 0.53125 -0.421875 L 0.53125 -2.5 C 0.976562 -2.269531 1.441406 -2.09375 1.921875 -1.96875 C 2.398438 -1.84375 2.835938 -1.78125 3.234375 -1.78125 C 3.578125 -1.78125 3.828125 -1.835938 3.984375 -1.953125 C 4.148438 -2.078125 4.234375 -2.234375 4.234375 -2.421875 C 4.234375 -2.535156 4.203125 -2.632812 4.140625 -2.71875 C 4.078125 -2.8125 3.972656 -2.898438 3.828125 -2.984375 C 3.679688 -3.078125 3.300781 -3.265625 2.6875 -3.546875 C 2.125 -3.804688 1.703125 -4.054688 1.421875 -4.296875 C 1.140625 -4.535156 0.929688 -4.804688 0.796875 -5.109375 C 0.660156 -5.421875 0.59375 -5.789062 0.59375 -6.21875 C 0.59375 -7.007812 0.878906 -7.628906 1.453125 -8.078125 C 2.035156 -8.523438 2.832031 -8.75 3.84375 -8.75 C 4.726562 -8.75 5.632812 -8.539062 6.5625 -8.125 L 5.859375 -6.328125 C 5.046875 -6.691406 4.347656 -6.875 3.765625 -6.875 C 3.460938 -6.875 3.242188 -6.820312 3.109375 -6.71875 C 2.972656 -6.613281 2.90625 -6.484375 2.90625 -6.328125 C 2.90625 -6.160156 2.988281 -6.007812 3.15625 -5.875 C 3.332031 -5.738281 3.8125 -5.492188 4.59375 -5.140625 C 5.332031 -4.804688 5.84375 -4.445312 6.125 -4.0625 C 6.414062 -3.675781 6.5625 -3.195312 6.5625 -2.625 Z M 6.5625 -2.625 "/></g></g></g><g fill="#474349" fill-opacity="1"><g transform="translate(256.643874, 298.097529)"><g><path d="M 4.734375 0 L 2.40625 0 L 2.40625 -6.71875 L 0.296875 -6.71875 L 0.296875 -8.625 L 6.828125 -8.625 L 6.828125 -6.71875 L 4.734375 -6.71875 Z M 4.734375 0 "/></g></g></g><path fill="#4dc9b1" d="M 212.382812 144.949219 C 211.066406 145.886719 208.859375 147.460938 205.054688 147.460938 C 201.144531 147.460938 198.90625 145.882812 197.570312 144.941406 C 196.777344 144.382812 196.777344 144.382812 196.3125 144.382812 C 195.738281 144.382812 195.738281 144.382812 194.886719 144.980469 C 193.570312 145.910156 191.367188 147.460938 187.570312 147.460938 C 183.660156 147.460938 181.417969 145.882812 180.082031 144.941406 C 179.289062 144.382812 179.289062 144.382812 178.824219 144.382812 C 178.25 144.382812 178.25 144.382812 177.398438 144.980469 C 176.082031 145.90625 173.878906 147.460938 170.082031 147.460938 C 166.28125 147.460938 164.074219 145.886719 162.757812 144.949219 C 161.976562 144.394531 161.976562 144.394531 161.605469 144.378906 L 161.328125 144.367188 C 161.363281 145.109375 161.421875 145.855469 161.496094 146.640625 C 162.875 159.257812 173.460938 169.113281 186.039062 169.722656 C 200.789062 170.476562 213 158.929688 213.453125 144.382812 C 213.167969 144.402344 213.089844 144.445312 212.382812 144.949219 Z M 212.382812 144.949219 " fill-opacity="1" fill-rule="nonzero"/><path fill="#4dc9b1" d="M 207.972656 129.863281 L 167.476562 129.863281 C 165.941406 129.863281 164.867188 130.480469 164.40625 131.558594 C 163.152344 133.917969 162.273438 136.460938 161.796875 139.089844 C 165.785156 139.238281 165.941406 142.167969 170.082031 142.167969 C 174.378906 142.167969 174.378906 139.089844 178.824219 139.089844 C 183.121094 139.089844 183.121094 142.167969 187.570312 142.167969 C 191.863281 142.167969 191.863281 139.089844 196.3125 139.089844 C 200.609375 139.089844 200.609375 142.167969 205.054688 142.167969 C 209.199219 142.167969 209.351562 139.246094 213.339844 139.089844 C 212.863281 136.457031 211.984375 133.917969 210.734375 131.558594 C 210.117188 130.480469 209.199219 129.863281 207.972656 129.863281 Z M 207.972656 129.863281 " fill-opacity="1" fill-rule="nonzero"/><path fill="#ffcc00" d="M 231.410156 89.867188 C 226.054688 87.929688 220.082031 89.644531 216.558594 94.140625 L 188.578125 129.863281 L 195.289062 129.863281 L 220.710938 97.40625 C 222.824219 94.710938 226.40625 93.683594 229.617188 94.84375 L 239.222656 98.324219 L 241.015625 93.347656 Z M 231.410156 89.867188 " fill-opacity="1" fill-rule="nonzero"/><g clip-path="url(#125991635e)"><path fill="#ff713c" d="M 224.859375 103.527344 L 211.394531 120.71875 C 217.039062 126.679688 220.527344 134.71875 220.527344 143.570312 C 220.527344 161.902344 205.664062 176.816406 187.390625 176.816406 C 169.117188 176.816406 154.253906 161.902344 154.253906 143.570312 C 154.253906 125.238281 169.117188 110.324219 187.390625 110.324219 C 189.777344 110.324219 192.101562 110.589844 194.347656 111.074219 L 208.582031 92.902344 C 202.0625 90.15625 194.90625 88.632812 187.390625 88.632812 C 157.152344 88.632812 132.636719 113.230469 132.636719 143.570312 C 132.636719 173.910156 187.390625 228.828125 187.390625 228.828125 C 187.390625 228.828125 242.144531 173.910156 242.144531 143.570312 C 242.144531 127.777344 235.496094 113.550781 224.859375 103.527344 Z M 224.859375 103.527344 " fill-opacity="1" fill-rule="nonzero"/></g></svg>